<svg xmlns="http://www.w3.org/2000/svg" xmlns:xlink="http://www.w3.org/1999/xlink" width="500" zoomAndPan="magnify" viewBox="0 0 375 374.999991" height="500" preserveAspectRatio="xMidYMid meet" version="1.0"><defs><clipPath id="6f68f662c6"><path d="M 52.117188 84.886719 L 322.925781 84.886719 L 322.925781 355.695312 L 52.117188 355.695312 Z M 52.117188 84.886719 " clip-rule="nonzero"/></clipPath><clipPath id="b553594265"><path d="M 212 20 L 240 20 L 240 50 L 212 50 Z M 212 20 " clip-rule="nonzero"/></clipPath><clipPath id="30f15e0fd8"><path d="M 101.320312 182.742188 L 96.449219 24.320312 L 243.332031 19.804688 L 248.203125 178.226562 Z M 101.320312 182.742188 " clip-rule="nonzero"/></clipPath><clipPath id="9f57c21d55"><path d="M 101.320312 182.742188 L 96.449219 24.320312 L 243.332031 19.804688 L 248.203125 178.226562 Z M 101.320312 182.742188 " clip-rule="nonzero"/></clipPath><clipPath id="d83a92e451"><path d="M 122 56 L 223 56 L 223 158 L 122 158 Z M 122 56 " clip-rule="nonzero"/></clipPath><clipPath id="93c96523f4"><path d="M 101.320312 182.742188 L 96.449219 24.320312 L 243.332031 19.804688 L 248.203125 178.226562 Z M 101.320312 182.742188 " clip-rule="nonzero"/></clipPath><clipPath id="9e7d2d847b"><path d="M 101.320312 182.742188 L 96.449219 24.320312 L 243.332031 19.804688 L 248.203125 178.226562 Z M 101.320312 182.742188 " clip-rule="nonzero"/></clipPath><clipPath id="538ec64873"><path d="M 99 33 L 246 33 L 246 181 L 99 181 Z M 99 33 " clip-rule="nonzero"/></clipPath><clipPath id="4bc090d370"><path d="M 101.320312 182.742188 L 96.449219 24.320312 L 243.332031 19.804688 L 248.203125 178.226562 Z M 101.320312 182.742188 " clip-rule="nonzero"/></clipPath><clipPath id="63a39908ce"><path d="M 101.320312 182.742188 L 96.449219 24.320312 L 243.332031 19.804688 L 248.203125 178.226562 Z M 101.320312 182.742188 " clip-rule="nonzero"/></clipPath><clipPath id="c574ae2f4b"><path d="M 104 38 L 240 38 L 240 175 L 104 175 Z M 104 38 " clip-rule="nonzero"/></clipPath><clipPath id="589852885d"><path d="M 101.320312 182.742188 L 96.449219 24.320312 L 243.332031 19.804688 L 248.203125 178.226562 Z M 101.320312 182.742188 " clip-rule="nonzero"/></clipPath><clipPath id="7f15a3b306"><path d="M 101.320312 182.742188 L 96.449219 24.320312 L 243.332031 19.804688 L 248.203125 178.226562 Z M 101.320312 182.742188 " clip-rule="nonzero"/></clipPath></defs><g clip-path="url(#6f68f662c6)"><path fill="#ff3131" d="M 322.5625 235.136719 C 322.867188 234.199219 322.949219 233.246094 322.816406 232.273438 C 322.679688 231.296875 322.339844 230.402344 321.792969 229.582031 L 296.007812 190.902344 C 295.933594 190.792969 295.785156 190.769531 295.707031 190.664062 C 295.019531 189.714844 294.132812 189.015625 293.054688 188.558594 C 292.996094 188.53125 292.96875 188.464844 292.910156 188.441406 L 254.230469 173.9375 C 253.832031 173.789062 253.425781 173.683594 253.011719 173.617188 C 252.59375 173.550781 252.175781 173.523438 251.75 173.539062 C 251.328125 173.554688 250.914062 173.609375 250.503906 173.707031 C 250.089844 173.804688 249.695312 173.941406 249.308594 174.117188 C 248.925781 174.292969 248.5625 174.503906 248.21875 174.75 C 247.875 174.996094 247.5625 175.273438 247.273438 175.582031 C 246.984375 175.894531 246.730469 176.226562 246.507812 176.585938 C 246.285156 176.945312 246.097656 177.320312 245.949219 177.71875 C 245.800781 178.113281 245.695312 178.519531 245.625 178.933594 C 245.558594 179.351562 245.527344 179.769531 245.542969 180.191406 C 245.558594 180.617188 245.613281 181.03125 245.707031 181.441406 C 245.800781 181.855469 245.9375 182.253906 246.109375 182.636719 C 246.285156 183.023438 246.496094 183.386719 246.738281 183.730469 C 246.984375 184.074219 247.261719 184.390625 247.570312 184.679688 C 247.878906 184.96875 248.210938 185.226562 248.566406 185.449219 C 248.925781 185.675781 249.300781 185.859375 249.695312 186.011719 L 272.28125 194.476562 L 187.496094 226.273438 L 102.714844 194.480469 L 121.003906 187.625 C 121.398438 187.472656 121.773438 187.285156 122.132812 187.0625 C 122.488281 186.839844 122.824219 186.582031 123.128906 186.292969 C 123.4375 186.003906 123.714844 185.6875 123.960938 185.34375 C 124.203125 185 124.414062 184.632812 124.589844 184.25 C 124.761719 183.863281 124.898438 183.464844 124.992188 183.054688 C 125.089844 182.644531 125.144531 182.226562 125.15625 181.804688 C 125.171875 181.382812 125.144531 180.964844 125.074219 180.546875 C 125.003906 180.128906 124.898438 179.722656 124.75 179.328125 C 124.601562 178.933594 124.414062 178.554688 124.191406 178.199219 C 123.96875 177.839844 123.714844 177.503906 123.425781 177.195312 C 123.136719 176.886719 122.824219 176.609375 122.480469 176.363281 C 122.136719 176.117188 121.773438 175.90625 121.390625 175.730469 C 121.003906 175.554688 120.609375 175.417969 120.195312 175.320312 C 119.785156 175.222656 119.371094 175.167969 118.949219 175.152344 C 118.527344 175.136719 118.105469 175.160156 117.6875 175.226562 C 117.273438 175.292969 116.867188 175.402344 116.46875 175.546875 L 82.082031 188.441406 C 82.023438 188.464844 81.996094 188.53125 81.941406 188.554688 C 80.859375 189.011719 79.976562 189.714844 79.285156 190.664062 C 79.207031 190.769531 79.058594 190.792969 78.984375 190.902344 L 53.199219 229.582031 C 52.929688 229.988281 52.710938 230.417969 52.539062 230.871094 C 52.367188 231.324219 52.246094 231.792969 52.179688 232.273438 C 52.113281 232.753906 52.101562 233.234375 52.144531 233.71875 C 52.1875 234.203125 52.28125 234.675781 52.429688 235.136719 C 52.578125 235.597656 52.777344 236.039062 53.027344 236.457031 C 53.273438 236.871094 53.566406 237.257812 53.898438 237.609375 C 54.234375 237.960938 54.605469 238.269531 55.007812 238.539062 C 55.414062 238.804688 55.84375 239.027344 56.296875 239.195312 L 77.902344 247.300781 L 77.902344 292.652344 C 77.910156 294.28125 78.035156 295.902344 78.289062 297.511719 C 78.539062 299.125 78.90625 300.707031 79.394531 302.261719 C 79.886719 303.816406 80.488281 305.324219 81.203125 306.785156 C 81.921875 308.25 82.746094 309.652344 83.671875 310.992188 C 84.601562 312.332031 85.625 313.59375 86.742188 314.777344 C 87.859375 315.964844 89.0625 317.058594 90.347656 318.0625 C 91.628906 319.066406 92.980469 319.96875 94.402344 320.765625 C 95.820312 321.566406 97.292969 322.257812 98.816406 322.835938 L 185.230469 355.238281 C 186.742188 355.800781 188.253906 355.800781 189.761719 355.238281 L 276.175781 322.835938 C 277.699219 322.257812 279.171875 321.566406 280.589844 320.765625 C 282.011719 319.96875 283.363281 319.066406 284.648438 318.0625 C 285.929688 317.058594 287.132812 315.964844 288.25 314.777344 C 289.367188 313.59375 290.390625 312.332031 291.320312 310.992188 C 292.25 309.652344 293.070312 308.25 293.789062 306.785156 C 294.503906 305.324219 295.109375 303.816406 295.597656 302.261719 C 296.085938 300.707031 296.457031 299.125 296.707031 297.511719 C 296.957031 295.902344 297.085938 294.28125 297.089844 292.652344 L 297.089844 247.300781 L 318.695312 239.195312 C 319.617188 238.851562 320.414062 238.320312 321.09375 237.609375 C 321.773438 236.898438 322.261719 236.074219 322.5625 235.136719 Z M 68.433594 229.972656 L 86.871094 202.3125 L 177.625 236.34375 L 159.179688 264.007812 Z M 181.050781 339.894531 L 103.347656 310.757812 C 102.433594 310.414062 101.550781 310 100.699219 309.519531 C 99.847656 309.039062 99.035156 308.5 98.265625 307.898438 C 97.496094 307.296875 96.773438 306.640625 96.101562 305.929688 C 95.429688 305.21875 94.816406 304.460938 94.257812 303.65625 C 93.703125 302.851562 93.207031 302.011719 92.777344 301.132812 C 92.347656 300.257812 91.984375 299.351562 91.691406 298.417969 C 91.398438 297.484375 91.175781 296.535156 91.027344 295.570312 C 90.875 294.601562 90.800781 293.628906 90.796875 292.652344 L 90.796875 252.132812 L 159.441406 277.878906 C 160.125 278.132812 160.828125 278.269531 161.558594 278.285156 C 162.285156 278.300781 162.996094 278.199219 163.6875 277.972656 C 164.378906 277.75 165.015625 277.421875 165.597656 276.980469 C 166.175781 276.542969 166.667969 276.019531 167.074219 275.414062 L 181.050781 254.449219 Z M 284.195312 292.652344 C 284.195312 293.628906 284.117188 294.601562 283.964844 295.570312 C 283.816406 296.535156 283.59375 297.484375 283.300781 298.417969 C 283.007812 299.351562 282.644531 300.257812 282.214844 301.132812 C 281.785156 302.011719 281.289062 302.851562 280.734375 303.65625 C 280.175781 304.460938 279.5625 305.21875 278.890625 305.929688 C 278.21875 306.640625 277.5 307.296875 276.726562 307.898438 C 275.957031 308.5 275.144531 309.039062 274.292969 309.519531 C 273.441406 310 272.558594 310.414062 271.644531 310.757812 L 193.941406 339.894531 L 193.941406 254.449219 L 207.917969 275.414062 C 208.324219 276.019531 208.816406 276.542969 209.398438 276.980469 C 209.976562 277.417969 210.613281 277.75 211.304688 277.972656 C 212 278.199219 212.707031 278.300781 213.4375 278.285156 C 214.164062 278.269531 214.867188 278.132812 215.550781 277.875 L 284.195312 252.132812 Z M 215.8125 264.007812 L 197.367188 236.34375 L 288.121094 202.3125 L 306.558594 229.972656 Z M 187.496094 162.246094 C 187.074219 162.246094 186.652344 162.203125 186.238281 162.121094 C 185.824219 162.039062 185.421875 161.917969 185.027344 161.757812 C 184.636719 161.59375 184.265625 161.394531 183.914062 161.160156 C 183.5625 160.925781 183.234375 160.65625 182.9375 160.359375 C 182.636719 160.058594 182.371094 159.734375 182.136719 159.382812 C 181.898438 159.03125 181.703125 158.65625 181.539062 158.265625 C 181.378906 157.875 181.253906 157.472656 181.171875 157.058594 C 181.089844 156.640625 181.050781 156.222656 181.050781 155.800781 L 181.050781 91.332031 C 181.050781 90.910156 181.089844 90.488281 181.171875 90.074219 C 181.257812 89.660156 181.378906 89.257812 181.539062 88.863281 C 181.703125 88.472656 181.902344 88.101562 182.136719 87.75 C 182.371094 87.398438 182.636719 87.074219 182.9375 86.773438 C 183.238281 86.472656 183.5625 86.207031 183.914062 85.972656 C 184.265625 85.738281 184.636719 85.539062 185.03125 85.375 C 185.421875 85.214844 185.824219 85.09375 186.238281 85.007812 C 186.652344 84.925781 187.074219 84.886719 187.496094 84.886719 C 187.917969 84.886719 188.339844 84.925781 188.753906 85.007812 C 189.167969 85.09375 189.574219 85.214844 189.964844 85.375 C 190.355469 85.539062 190.726562 85.738281 191.078125 85.972656 C 191.429688 86.207031 191.753906 86.472656 192.054688 86.773438 C 192.355469 87.074219 192.621094 87.398438 192.855469 87.75 C 193.09375 88.101562 193.289062 88.472656 193.453125 88.863281 C 193.613281 89.257812 193.738281 89.660156 193.820312 90.074219 C 193.902344 90.488281 193.941406 90.910156 193.941406 91.332031 L 193.941406 155.800781 C 193.945312 156.222656 193.902344 156.640625 193.820312 157.058594 C 193.738281 157.472656 193.617188 157.875 193.453125 158.265625 C 193.292969 158.65625 193.09375 159.03125 192.859375 159.382812 C 192.621094 159.734375 192.355469 160.058594 192.054688 160.359375 C 191.757812 160.65625 191.429688 160.925781 191.078125 161.160156 C 190.726562 161.394531 190.355469 161.59375 189.964844 161.757812 C 189.574219 161.917969 189.167969 162.039062 188.753906 162.121094 C 188.339844 162.203125 187.917969 162.246094 187.496094 162.246094 Z M 144.257812 173.25 L 105.578125 134.570312 C 105.289062 134.269531 105.027344 133.941406 104.800781 133.589844 C 104.574219 133.238281 104.382812 132.871094 104.226562 132.480469 C 104.074219 132.09375 103.957031 131.691406 103.878906 131.28125 C 103.800781 130.871094 103.765625 130.453125 103.769531 130.035156 C 103.773438 129.617188 103.816406 129.203125 103.902344 128.792969 C 103.984375 128.382812 104.109375 127.984375 104.269531 127.597656 C 104.433594 127.214844 104.628906 126.847656 104.863281 126.5 C 105.097656 126.152344 105.359375 125.828125 105.65625 125.535156 C 105.953125 125.238281 106.273438 124.972656 106.621094 124.738281 C 106.96875 124.507812 107.335938 124.308594 107.722656 124.148438 C 108.109375 123.984375 108.507812 123.863281 108.917969 123.777344 C 109.328125 123.691406 109.742188 123.648438 110.160156 123.644531 C 110.578125 123.640625 110.992188 123.679688 111.402344 123.753906 C 111.816406 123.832031 112.214844 123.949219 112.605469 124.105469 C 112.992188 124.257812 113.363281 124.449219 113.714844 124.679688 C 114.066406 124.90625 114.394531 125.164062 114.695312 125.453125 L 153.375 164.136719 C 153.683594 164.433594 153.957031 164.757812 154.199219 165.109375 C 154.445312 165.460938 154.648438 165.835938 154.820312 166.226562 C 154.988281 166.621094 155.117188 167.027344 155.203125 167.445312 C 155.292969 167.863281 155.339844 168.289062 155.34375 168.714844 C 155.34375 169.144531 155.308594 169.566406 155.226562 169.988281 C 155.144531 170.410156 155.023438 170.816406 154.863281 171.214844 C 154.699219 171.609375 154.5 171.984375 154.261719 172.34375 C 154.027344 172.699219 153.757812 173.027344 153.453125 173.332031 C 153.152344 173.632812 152.820312 173.902344 152.464844 174.140625 C 152.109375 174.378906 151.734375 174.578125 151.335938 174.738281 C 150.941406 174.902344 150.53125 175.023438 150.113281 175.101562 C 149.691406 175.183594 149.265625 175.222656 148.839844 175.21875 C 148.410156 175.214844 147.988281 175.167969 147.570312 175.082031 C 147.148438 174.992188 146.742188 174.863281 146.351562 174.695312 C 145.957031 174.527344 145.585938 174.320312 145.234375 174.078125 C 144.878906 173.835938 144.554688 173.558594 144.257812 173.25 Z M 226.175781 175.140625 C 225.539062 175.140625 224.914062 175.046875 224.304688 174.863281 C 223.695312 174.675781 223.125 174.40625 222.59375 174.050781 C 222.066406 173.699219 221.597656 173.273438 221.195312 172.78125 C 220.789062 172.289062 220.464844 171.75 220.222656 171.160156 C 219.976562 170.570312 219.824219 169.957031 219.761719 169.324219 C 219.699219 168.691406 219.730469 168.058594 219.855469 167.433594 C 219.980469 166.808594 220.191406 166.214844 220.492188 165.652344 C 220.792969 165.089844 221.167969 164.585938 221.617188 164.132812 L 260.296875 125.453125 C 260.601562 125.164062 260.925781 124.90625 261.277344 124.675781 C 261.628906 124.449219 262 124.257812 262.386719 124.105469 C 262.777344 123.949219 263.175781 123.832031 263.589844 123.753906 C 264 123.679688 264.414062 123.640625 264.832031 123.644531 C 265.253906 123.648438 265.667969 123.691406 266.078125 123.777344 C 266.488281 123.859375 266.882812 123.984375 267.269531 124.144531 C 267.65625 124.308594 268.023438 124.503906 268.371094 124.738281 C 268.71875 124.972656 269.039062 125.238281 269.335938 125.53125 C 269.632812 125.828125 269.898438 126.152344 270.128906 126.496094 C 270.363281 126.84375 270.5625 127.210938 270.722656 127.597656 C 270.882812 127.984375 271.007812 128.382812 271.09375 128.792969 C 271.175781 129.203125 271.21875 129.617188 271.222656 130.035156 C 271.226562 130.453125 271.191406 130.867188 271.113281 131.28125 C 271.035156 131.691406 270.921875 132.089844 270.765625 132.480469 C 270.609375 132.871094 270.417969 133.238281 270.191406 133.589844 C 269.964844 133.941406 269.707031 134.269531 269.414062 134.570312 L 230.734375 173.25 C 230.128906 173.855469 229.433594 174.320312 228.644531 174.648438 C 227.855469 174.976562 227.03125 175.140625 226.175781 175.140625 Z M 226.175781 175.140625 " fill-opacity="1" fill-rule="nonzero"/></g><g clip-path="url(#b553594265)"><g clip-path="url(#30f15e0fd8)"><g clip-path="url(#9f57c21d55)"><path fill="#161616" d="M 212.964844 45.742188 C 212.964844 45.742188 224.628906 40.382812 224.015625 31.90625 C 223.371094 23.433594 220.226562 20.226562 220.226562 20.226562 L 239.972656 22.214844 C 239.972656 22.214844 241.453125 47.464844 218.640625 49.898438 C 214.292969 50.351562 212.964844 45.742188 212.964844 45.742188 Z M 212.964844 45.742188 " fill-opacity="1" fill-rule="nonzero"/></g></g></g><g clip-path="url(#d83a92e451)"><g clip-path="url(#93c96523f4)"><g clip-path="url(#9e7d2d847b)"><path fill="#161616" d="M 170.886719 56.527344 C 172.535156 56.476562 174.183594 56.507812 175.832031 56.617188 C 177.480469 56.730469 179.121094 56.921875 180.75 57.191406 C 182.378906 57.464844 183.992188 57.816406 185.585938 58.246094 C 187.179688 58.679688 188.75 59.1875 190.292969 59.769531 C 191.839844 60.355469 193.351562 61.015625 194.832031 61.75 C 196.3125 62.480469 197.753906 63.285156 199.152344 64.160156 C 200.554688 65.035156 201.910156 65.976562 203.21875 66.984375 C 204.527344 67.996094 205.78125 69.0625 206.984375 70.195312 C 208.1875 71.328125 209.332031 72.515625 210.421875 73.757812 C 211.507812 75.003906 212.53125 76.296875 213.488281 77.640625 C 214.449219 78.988281 215.339844 80.375 216.164062 81.808594 C 216.988281 83.238281 217.738281 84.707031 218.417969 86.214844 C 219.09375 87.71875 219.699219 89.257812 220.226562 90.820312 C 220.753906 92.386719 221.203125 93.972656 221.574219 95.582031 C 221.949219 97.191406 222.238281 98.816406 222.453125 100.453125 C 222.664062 102.09375 222.796875 103.738281 222.847656 105.386719 C 222.898438 107.039062 222.867188 108.6875 222.757812 110.335938 C 222.644531 111.984375 222.453125 113.625 222.179688 115.253906 C 221.910156 116.882812 221.558594 118.492188 221.125 120.089844 C 220.695312 121.683594 220.1875 123.253906 219.601562 124.796875 C 219.019531 126.34375 218.359375 127.855469 217.625 129.335938 C 216.890625 130.816406 216.085938 132.253906 215.210938 133.65625 C 214.335938 135.058594 213.394531 136.414062 212.386719 137.71875 C 211.378906 139.027344 210.308594 140.285156 209.179688 141.488281 C 208.046875 142.691406 206.859375 143.835938 205.613281 144.921875 C 204.371094 146.011719 203.074219 147.035156 201.730469 147.992188 C 200.386719 148.953125 199 149.84375 197.566406 150.667969 C 196.132812 151.488281 194.664062 152.242188 193.160156 152.917969 C 191.652344 153.597656 190.117188 154.203125 188.550781 154.730469 C 186.988281 155.257812 185.398438 155.707031 183.789062 156.078125 C 182.179688 156.449219 180.558594 156.742188 178.917969 156.957031 C 177.28125 157.167969 175.636719 157.300781 173.984375 157.351562 C 172.335938 157.402344 170.683594 157.371094 169.035156 157.257812 C 167.390625 157.148438 165.75 156.957031 164.121094 156.683594 C 162.492188 156.410156 160.878906 156.058594 159.285156 155.628906 C 157.691406 155.199219 156.121094 154.691406 154.574219 154.105469 C 153.03125 153.519531 151.519531 152.863281 150.039062 152.128906 C 148.558594 151.394531 147.117188 150.589844 145.71875 149.714844 C 144.316406 148.839844 142.960938 147.898438 141.652344 146.890625 C 140.34375 145.882812 139.089844 144.8125 137.886719 143.679688 C 136.683594 142.550781 135.535156 141.363281 134.449219 140.117188 C 133.363281 138.875 132.339844 137.578125 131.382812 136.234375 C 130.421875 134.890625 129.53125 133.5 128.707031 132.070312 C 127.882812 130.636719 127.132812 129.167969 126.453125 127.664062 C 125.777344 126.15625 125.171875 124.621094 124.644531 123.054688 C 124.117188 121.492188 123.667969 119.902344 123.292969 118.292969 C 122.921875 116.683594 122.628906 115.0625 122.417969 113.421875 C 122.207031 111.785156 122.074219 110.140625 122.023438 108.488281 C 121.972656 106.835938 122.003906 105.1875 122.113281 103.539062 C 122.226562 101.890625 122.417969 100.253906 122.691406 98.625 C 122.960938 96.996094 123.3125 95.382812 123.746094 93.789062 C 124.175781 92.195312 124.683594 90.625 125.269531 89.078125 C 125.851562 87.535156 126.511719 86.023438 127.246094 84.542969 C 127.980469 83.0625 128.78125 81.621094 129.65625 80.21875 C 130.535156 78.820312 131.476562 77.464844 132.484375 76.15625 C 133.492188 74.847656 134.5625 73.589844 135.691406 72.386719 C 136.824219 71.183594 138.011719 70.039062 139.257812 68.953125 C 140.5 67.867188 141.792969 66.84375 143.140625 65.882812 C 144.484375 64.925781 145.871094 64.035156 147.304688 63.210938 C 148.734375 62.386719 150.207031 61.636719 151.710938 60.957031 C 153.21875 60.277344 154.753906 59.675781 156.316406 59.148438 C 157.882812 58.621094 159.46875 58.167969 161.078125 57.796875 C 162.6875 57.425781 164.3125 57.132812 165.949219 56.921875 C 167.589844 56.710938 169.234375 56.578125 170.886719 56.527344 Z M 170.886719 56.527344 " fill-opacity="1" fill-rule="nonzero"/></g></g></g><g clip-path="url(#538ec64873)"><g clip-path="url(#4bc090d370)"><g clip-path="url(#63a39908ce)"><path fill="#ff3131" d="M 99.058594 109.195312 C 100.304688 149.710938 134.175781 181.558594 174.691406 180.3125 C 215.207031 179.066406 247.058594 145.195312 245.8125 104.683594 C 244.566406 64.167969 210.695312 32.316406 170.179688 33.5625 C 129.664062 34.808594 97.8125 68.679688 99.058594 109.195312 Z M 112.09375 108.792969 C 111.753906 97.679688 120.476562 88.4375 131.558594 88.09375 C 142.640625 87.753906 151.917969 96.476562 152.257812 107.558594 C 152.597656 118.640625 143.875 127.917969 132.792969 128.257812 C 121.710938 128.597656 112.4375 119.90625 112.09375 108.792969 Z M 169.695312 93.910156 C 171.070312 93.867188 172.195312 94.925781 172.234375 96.300781 C 172.277344 97.679688 171.222656 98.800781 169.847656 98.84375 C 168.46875 98.886719 167.347656 97.832031 167.304688 96.453125 C 167.261719 95.074219 168.316406 93.953125 169.695312 93.910156 Z M 159.355469 104.871094 C 160.734375 104.828125 161.855469 105.886719 161.898438 107.261719 C 161.941406 108.640625 160.886719 109.761719 159.507812 109.804688 C 158.128906 109.847656 157.007812 108.792969 156.964844 107.414062 C 156.925781 106.070312 158.011719 104.914062 159.355469 104.871094 Z M 170.347656 115.210938 C 171.726562 115.167969 172.847656 116.222656 172.890625 117.601562 C 172.933594 118.976562 171.878906 120.097656 170.5 120.140625 C 169.125 120.183594 168 119.128906 167.960938 117.75 C 167.917969 116.375 168.972656 115.25 170.347656 115.210938 Z M 162.921875 165.511719 C 151.839844 165.851562 142.5625 157.128906 142.222656 146.046875 C 141.878906 134.96875 150.601562 125.691406 161.683594 125.351562 C 172.765625 125.007812 182.042969 133.730469 182.382812 144.8125 C 182.726562 155.894531 174.035156 165.171875 162.921875 165.511719 Z M 225.542969 129.476562 C 225.882812 140.558594 217.160156 149.835938 206.078125 150.175781 C 194.996094 150.515625 185.722656 141.792969 185.378906 130.710938 C 185.039062 119.597656 193.761719 110.355469 204.84375 110.011719 C 215.925781 109.671875 225.203125 118.394531 225.542969 129.476562 Z M 170.269531 112.613281 C 167.164062 112.710938 164.589844 110.289062 164.492188 107.183594 C 164.398438 104.074219 166.816406 101.5 169.925781 101.40625 C 173.03125 101.308594 175.605469 103.730469 175.703125 106.839844 C 175.796875 109.945312 173.34375 112.519531 170.269531 112.613281 Z M 183.195312 106.609375 C 183.238281 107.984375 182.183594 109.105469 180.804688 109.148438 C 179.429688 109.191406 178.304688 108.136719 178.265625 106.757812 C 178.222656 105.382812 179.277344 104.257812 180.65625 104.21875 C 182.03125 104.175781 183.15625 105.261719 183.195312 106.609375 Z M 224.070312 81.5625 C 224.410156 92.644531 215.6875 101.921875 204.605469 102.261719 C 193.523438 102.601562 184.246094 93.878906 183.90625 82.796875 C 183.566406 71.683594 192.289062 62.441406 203.371094 62.101562 C 214.453125 61.726562 223.726562 70.449219 224.070312 81.5625 Z M 180.070312 68.554688 C 180.410156 79.636719 171.6875 88.914062 160.605469 89.253906 C 149.523438 89.59375 140.214844 80.871094 139.875 69.789062 C 139.535156 58.675781 148.257812 49.433594 159.339844 49.09375 C 170.421875 48.75 179.730469 57.441406 180.070312 68.554688 Z M 180.070312 68.554688 " fill-opacity="1" fill-rule="nonzero"/></g></g></g><g clip-path="url(#c574ae2f4b)"><g clip-path="url(#589852885d)"><g clip-path="url(#7f15a3b306)"><path fill="#ff3131" d="M 239.96875 104.378906 C 241.113281 141.628906 211.746094 172.890625 174.46875 174.039062 C 137.21875 175.183594 105.957031 145.816406 104.808594 108.539062 C 103.664062 71.289062 133.03125 40.027344 170.308594 38.878906 C 207.589844 37.765625 238.820312 67.132812 239.96875 104.378906 Z M 108.042969 108.4375 C 109.136719 143.925781 138.914062 171.925781 174.398438 170.832031 C 209.886719 169.742188 237.886719 139.964844 236.796875 104.476562 C 235.703125 68.992188 205.925781 40.992188 170.441406 42.082031 C 134.953125 43.207031 106.953125 72.953125 108.042969 108.4375 Z M 108.042969 108.4375 " fill-opacity="1" fill-rule="nonzero"/></g></g></g></svg>